<svg width="500" height="500" viewBox="0 0 500 500" fill="none" xmlns="http://www.w3.org/2000/svg">
  <rect width="500" height="500" fill="#1A1A1A"/>
  <path d="M250 150C194.772 150 150 194.772 150 250C150 305.228 194.772 350 250 350C305.228 350 350 305.228 350 250C350 194.772 305.228 150 250 150ZM250 320C211.34 320 180 288.66 180 250C180 211.34 211.34 180 250 180C288.66 180 320 211.34 320 250C320 288.66 288.66 320 250 320Z" fill="#2A2A2A"/>
  <path d="M250 200C233.431 200 220 213.431 220 230C220 246.569 233.431 260 250 260C266.569 260 280 246.569 280 230C280 213.431 266.569 200 250 200Z" fill="#3A3A3A"/>
</svg> 