<?xml version="1.0" encoding="UTF-8"?>
<svg width="1200" height="400" viewBox="0 0 1200 400" fill="none" xmlns="http://www.w3.org/2000/svg">
  <rect width="1200" height="400" fill="#1A1A1A"/>
  <path d="M0 0L1200 0L1200 400L0 400L0 0Z" fill="#1A1A1A"/>
  <path fill-rule="evenodd" clip-rule="evenodd" d="M0 350C200 350 300 300 500 300C700 300 800 400 1000 400C1200 400 1200 350 1200 350V400H0V350Z" fill="#F7B500" fill-opacity="0.1"/>
  <path fill-rule="evenodd" clip-rule="evenodd" d="M0 375C200 375 300 325 500 325C700 325 800 425 1000 425C1200 425 1200 375 1200 375V425H0V375Z" fill="#F7B500" fill-opacity="0.05"/>
</svg> 